<?xml version="1.0" encoding="utf-8"?>
<!-- Generator: Adobe Illustrator 22.1.0, SVG Export Plug-In . SVG Version: 6.00 Build 0)  -->
<svg version="1.1" id="Layer_1" xmlns="http://www.w3.org/2000/svg" xmlns:xlink="http://www.w3.org/1999/xlink" x="0px" y="0px"
	 viewBox="0 0 32 32" style="enable-background:new 0 0 32 32;" xml:space="preserve">
<style type="text/css">
	.st0{fill:#4374BA;}
	.st1{fill:#FFFFFF;}
</style>
<g>
	<g>
		<circle class="st0" cx="16" cy="16" r="15"/>
	</g>
	<g>
		<g>
			<path class="st1" d="M16,26.4l-8.8-5V10.6l8.8-5l8.8,5v10.8L16,26.4z M7.5,21.3l8.5,4.9l8.5-4.9V10.7L16,5.9l-8.5,4.9V21.3z"/>
		</g>
		<g>
			<path class="st1" d="M16,19.3C16,19.3,16,19.3,16,19.3l-6.2-3.5c-0.1,0-0.1-0.1-0.1-0.2c0-0.1,0.1-0.1,0.2-0.1l6.1,3.5
				c0.1,0,0.1,0.1,0.1,0.2C16.1,19.3,16.1,19.3,16,19.3z"/>
		</g>
		<g>
			<path class="st1" d="M13.4,21.7C13.4,21.7,13.3,21.7,13.4,21.7l-6.2-3.5c-0.1,0-0.1-0.1-0.1-0.2C7.2,18,7.3,18,7.4,18l6.1,3.5
				c0.1,0,0.1,0.1,0.1,0.2C13.5,21.7,13.4,21.7,13.4,21.7z"/>
		</g>
		<g>
			<path class="st1" d="M18.6,18.2c-0.1,0-0.1,0-0.1-0.1c0-0.1,0-0.2,0.1-0.2l3.5-2c0.1,0,0.2,0,0.2,0.1c0,0.1,0,0.2-0.1,0.2
				L18.6,18.2C18.7,18.2,18.6,18.2,18.6,18.2z"/>
		</g>
		<g>
			<path class="st1" d="M19.5,24.4c-0.1,0-0.1-0.1-0.1-0.1v-3.2c0-0.1,0.1-0.1,0.1-0.1s0.1,0.1,0.1,0.1v3.2
				C19.6,24.4,19.6,24.4,19.5,24.4z"/>
		</g>
		<g>
			<path class="st1" d="M22.1,19.8c-0.1,0-0.1,0-0.1-0.1c0-0.1,0-0.2,0.1-0.2l2.6-1.5c0.1,0,0.2,0,0.2,0.1c0,0.1,0,0.2-0.1,0.2
				L22.1,19.8C22.1,19.8,22.1,19.8,22.1,19.8z"/>
		</g>
		<g>
			<path class="st1" d="M16,26.4c-0.1,0-0.1-0.1-0.1-0.1V15.6c0-0.1,0.1-0.1,0.1-0.1s0.1,0.1,0.1,0.1v10.7
				C16.1,26.4,16.1,26.4,16,26.4z"/>
		</g>
		<g>
			<path class="st1" d="M16,15.7c-0.1,0-0.1,0-0.1-0.1c0-0.1,0-0.2,0.1-0.2l8.7-4.9c0.1,0,0.2,0,0.2,0.1c0,0.1,0,0.2-0.1,0.2
				L16,15.7C16,15.7,16,15.7,16,15.7z"/>
		</g>
		<g>
			<path class="st1" d="M16,15.7C16,15.7,16,15.7,16,15.7l-8.8-5c-0.1,0-0.1-0.1-0.1-0.2c0-0.1,0.1-0.1,0.2-0.1l8.7,4.9
				c0.1,0,0.1,0.1,0.1,0.2C16.1,15.7,16.1,15.7,16,15.7z"/>
		</g>
		<g>
			<g>
				<path class="st1" d="M11.7,13.3c-0.1,0-0.1,0-0.1-0.1c0-0.1,0-0.2,0.1-0.2l5.2-3c0.1,0,0.2,0,0.2,0.1c0,0.1,0,0.2-0.1,0.2
					L11.7,13.3C11.7,13.3,11.7,13.3,11.7,13.3z"/>
			</g>
			<g>
				<path class="st1" d="M18.6,9.3c-0.1,0-0.1,0-0.1-0.1c0-0.1,0-0.2,0.1-0.2l1.7-1c0.1,0,0.2,0,0.2,0.1c0,0.1,0,0.2-0.1,0.2
					L18.6,9.3C18.7,9.3,18.6,9.3,18.6,9.3z"/>
			</g>
		</g>
	</g>
</g>
</svg>
